<svg width="17" height="22" viewBox="0 0 17 22" fill="none" xmlns="http://www.w3.org/2000/svg">
<path d="M10.3297 10.6336L6.67578 6.34912V10.3586C6.67578 10.4315 6.7009 10.5015 6.74562 10.553C6.79034 10.6046 6.85099 10.6336 6.91424 10.6336H10.3297Z" fill="#465668"/>
<path d="M5.405 11.5497V5.86638H0.476912C0.350427 5.86638 0.229123 5.92433 0.139684 6.02747C0.0502459 6.13062 0 6.27051 0 6.41638V21.4496C0 21.5954 0.0502459 21.7353 0.139684 21.8385C0.229123 21.9416 0.350427 21.9996 0.476912 21.9996H10.3331C10.4596 21.9996 10.5809 21.9416 10.6703 21.8385C10.7598 21.7353 10.81 21.5954 10.81 21.4496V12.0997H5.88192C5.75543 12.0997 5.63413 12.0417 5.54469 11.9386C5.45525 11.8354 5.405 11.6955 5.405 11.5497ZM12.6382 4.76639H16.0537L12.3997 0.481934V4.4914C12.3997 4.56433 12.4248 4.63428 12.4696 4.68585C12.5143 4.73742 12.5749 4.76639 12.6382 4.76639Z" fill="#465668"/>
<path d="M11.6039 6.23328C11.4774 6.23328 11.3561 6.17533 11.2667 6.07219C11.1772 5.96904 11.127 5.82915 11.127 5.68328V0H4.92711C4.80062 0 4.67932 0.0579457 4.58988 0.16109C4.50044 0.264234 4.4502 0.404127 4.4502 0.549995V4.39996H6.12416C6.33782 4.40094 6.54921 4.45061 6.74618 4.54609C6.94315 4.64158 7.12182 4.78101 7.27193 4.95637L11.6102 10.0438C11.9129 10.398 12.0819 10.8757 12.0804 11.373V17.5998H16.0551C16.1815 17.5998 16.3028 17.5419 16.3923 17.4387C16.4817 17.3356 16.532 17.1957 16.532 17.0498V6.23328H11.6039Z" fill="#465668"/>
</svg>
