<svg width="20" height="20" viewBox="0 0 20 20" fill="none" xmlns="http://www.w3.org/2000/svg">
<path fill-rule="evenodd" clip-rule="evenodd" d="M6.66683 5.83325C6.20659 5.83325 5.8335 6.20635 5.8335 6.66659C5.8335 7.12682 6.20659 7.49992 6.66683 7.49992H10.0002C10.4604 7.49992 10.8335 7.12682 10.8335 6.66659C10.8335 6.20635 10.4604 5.83325 10.0002 5.83325H6.66683ZM7.50016 9.99992C7.50016 9.53968 7.87326 9.16659 8.3335 9.16659H11.6668C12.1271 9.16659 12.5002 9.53968 12.5002 9.99992C12.5002 10.4602 12.1271 10.8333 11.6668 10.8333H8.3335C7.87326 10.8333 7.50016 10.4602 7.50016 9.99992ZM9.16683 13.3333C9.16683 12.873 9.53993 12.4999 10.0002 12.4999H13.3335C13.7937 12.4999 14.1668 12.873 14.1668 13.3333C14.1668 13.7935 13.7937 14.1666 13.3335 14.1666H10.0002C9.53993 14.1666 9.16683 13.7935 9.16683 13.3333Z" fill="#465668"/>
<path fill-rule="evenodd" clip-rule="evenodd" d="M8.63099 2.5H11.369C12.2722 2.49999 13.0006 2.49999 13.5905 2.54818C14.1979 2.59781 14.7314 2.70265 15.225 2.95414C16.009 3.35361 16.6464 3.99103 17.0459 4.77504C17.2973 5.26862 17.4022 5.80211 17.4518 6.40948C17.5 6.99938 17.5 7.72783 17.5 8.63097V11.369C17.5 12.2722 17.5 13.0006 17.4518 13.5905C17.4022 14.1979 17.2973 14.7314 17.0459 15.225C16.6464 16.009 16.009 16.6464 15.225 17.0459C14.7314 17.2973 14.1979 17.4022 13.5905 17.4518C13.0006 17.5 12.2722 17.5 11.369 17.5H8.63097C7.72783 17.5 6.99937 17.5 6.40948 17.4518C5.80211 17.4022 5.26862 17.2973 4.77504 17.0459C3.99103 16.6464 3.35361 16.009 2.95414 15.225C2.70265 14.7314 2.59781 14.1979 2.54818 13.5905C2.49999 13.0006 2.49999 12.2722 2.5 11.369V8.63099C2.49999 7.72784 2.49999 6.99938 2.54818 6.40948C2.59781 5.80211 2.70265 5.26862 2.95414 4.77504C3.35361 3.99103 3.99103 3.35361 4.77504 2.95414C5.26862 2.70265 5.80211 2.59781 6.40948 2.54818C6.99938 2.49999 7.72784 2.49999 8.63099 2.5ZM6.5452 4.20931C6.04089 4.25052 5.75115 4.32733 5.53169 4.43915C5.06129 4.67883 4.67883 5.06129 4.43915 5.53169C4.32733 5.75115 4.25052 6.04089 4.20931 6.5452C4.16732 7.05924 4.16667 7.7195 4.16667 8.66667V11.3333C4.16667 12.2805 4.16732 12.9408 4.20931 13.4548C4.25052 13.9591 4.32733 14.2488 4.43915 14.4683C4.67883 14.9387 5.06129 15.3212 5.53169 15.5609C5.75115 15.6727 6.04089 15.7495 6.5452 15.7907C7.05924 15.8327 7.7195 15.8333 8.66667 15.8333H11.3333C12.2805 15.8333 12.9408 15.8327 13.4548 15.7907C13.9591 15.7495 14.2488 15.6727 14.4683 15.5609C14.9387 15.3212 15.3212 14.9387 15.5609 14.4683C15.6727 14.2488 15.7495 13.9591 15.7907 13.4548C15.8327 12.9408 15.8333 12.2805 15.8333 11.3333V8.66667C15.8333 7.7195 15.8327 7.05924 15.7907 6.5452C15.7495 6.04089 15.6727 5.75115 15.5609 5.53169C15.3212 5.06129 14.9387 4.67883 14.4683 4.43915C14.2488 4.32733 13.9591 4.25052 13.4548 4.20931C12.9408 4.16732 12.2805 4.16667 11.3333 4.16667H8.66667C7.7195 4.16667 7.05924 4.16732 6.5452 4.20931Z" fill="#465668"/>
</svg>
