<svg width="352" height="448" viewBox="0 0 352 448" fill="none" xmlns="http://www.w3.org/2000/svg">
<path d="M348 192H208C195.27 192 183.061 186.943 174.059 177.941C165.057 168.939 160 156.73 160 144V4C160 2.93913 159.579 1.92172 158.828 1.17157C158.078 0.421428 157.061 0 156 0H64C47.0261 0 30.7475 6.74284 18.7452 18.7452C6.74284 30.7475 0 47.0261 0 64V384C0 400.974 6.74284 417.252 18.7452 429.255C30.7475 441.257 47.0261 448 64 448H288C304.974 448 321.252 441.257 333.255 429.255C345.257 417.252 352 400.974 352 384V196C352 194.939 351.579 193.922 350.828 193.172C350.078 192.421 349.061 192 348 192Z" fill="#414141"/>
<path d="M339.22 156.59L195.41 12.78C195.13 12.502 194.775 12.3128 194.388 12.2363C194.001 12.1599 193.6 12.1995 193.236 12.3501C192.871 12.5008 192.56 12.7559 192.34 13.0832C192.12 13.4106 192.002 13.7956 192 14.19V144C192 148.243 193.686 152.313 196.686 155.314C199.687 158.314 203.757 160 208 160H337.81C338.204 159.998 338.589 159.88 338.917 159.66C339.244 159.44 339.499 159.129 339.65 158.764C339.801 158.4 339.84 157.999 339.764 157.612C339.687 157.225 339.498 156.87 339.22 156.59Z" fill="#414141"/>
</svg>
