<svg width="16" height="18" viewBox="0 0 16 18" fill="none" xmlns="http://www.w3.org/2000/svg">
<path d="M1 4.2002H2.55556H15" stroke="#A10000" stroke-width="1.5" stroke-linecap="round" stroke-linejoin="round"/>
<path d="M13.4455 4.2V15.4C13.4455 15.8243 13.2816 16.2313 12.9899 16.5314C12.6982 16.8314 12.3025 17 11.89 17H4.1122C3.69964 17 3.30398 16.8314 3.01225 16.5314C2.72053 16.2313 2.55664 15.8243 2.55664 15.4V4.2M4.88997 4.2V2.6C4.88997 2.17565 5.05386 1.76869 5.34559 1.46863C5.63731 1.16857 6.03297 1 6.44553 1H9.55664C9.9692 1 10.3649 1.16857 10.6566 1.46863C10.9483 1.76869 11.1122 2.17565 11.1122 2.6V4.2" stroke="#A10000" stroke-width="1.5" stroke-linecap="round" stroke-linejoin="round"/>
<path d="M6.44531 8.2002V13.0002" stroke="#A10000" stroke-width="1.5" stroke-linecap="round" stroke-linejoin="round"/>
<path d="M9.55664 8.2002V13.0002" stroke="#A10000" stroke-width="1.5" stroke-linecap="round" stroke-linejoin="round"/>
</svg>
