<svg width="15" height="15" viewBox="0 0 15 15" fill="none" xmlns="http://www.w3.org/2000/svg">
<path d="M6.81481 2.36957H2.2937C1.95111 2.36957 1.62255 2.5057 1.3803 2.74801C1.13805 2.99033 1.00195 3.31898 1.00195 3.66166V12.7063C1.00195 13.049 1.13805 13.3776 1.3803 13.62C1.62255 13.8623 1.95111 13.9984 2.2937 13.9984H11.3359C11.6785 13.9984 12.0071 13.8623 12.2493 13.62C12.4916 13.3776 12.6277 13.049 12.6277 12.7063V8.18399" stroke="#B57801" stroke-width="1.2" stroke-linecap="round" stroke-linejoin="round"/>
<path d="M11.6596 1.4014C11.9165 1.14439 12.265 1 12.6284 1C12.9918 1 13.3403 1.14439 13.5972 1.4014C13.8542 1.65842 13.9985 2.007 13.9985 2.37047C13.9985 2.73394 13.8542 3.08253 13.5972 3.33954L7.46142 9.47698L4.87793 10.123L5.5238 7.53884L11.6596 1.4014Z" stroke="#B57801" stroke-width="1.2" stroke-linecap="round" stroke-linejoin="round"/>
</svg>
