<svg width="18" height="19" viewBox="0 0 18 19" fill="none" xmlns="http://www.w3.org/2000/svg">
<path d="M9 0.792542C4.03745 0.792542 0 4.82999 0 9.79254C0 14.7551 4.03745 18.7925 9 18.7925C13.9625 18.7925 18 14.7551 18 9.79254C18 4.82999 13.9625 0.792542 9 0.792542ZM9 14.6348C8.82884 14.6348 8.66153 14.584 8.51922 14.489C8.37691 14.3939 8.26599 14.2587 8.20049 14.1006C8.13499 13.9425 8.11785 13.7685 8.15124 13.6006C8.18464 13.4327 8.26705 13.2785 8.38808 13.1575C8.50911 13.0365 8.6633 12.9541 8.83117 12.9207C8.99904 12.8873 9.17304 12.9044 9.33117 12.9699C9.4893 13.0354 9.62445 13.1463 9.71954 13.2886C9.81463 13.4309 9.86539 13.5983 9.86539 13.7694C9.86539 13.9989 9.77421 14.219 9.61192 14.3813C9.44963 14.5436 9.22951 14.6348 9 14.6348ZM9.93981 5.9312L9.69144 11.21C9.69144 11.3937 9.6185 11.5697 9.48867 11.6996C9.35884 11.8294 9.18275 11.9023 8.99914 11.9023C8.81552 11.9023 8.63943 11.8294 8.5096 11.6996C8.37977 11.5697 8.30683 11.3937 8.30683 11.21L8.05846 5.93379V5.93163C8.05302 5.80482 8.07329 5.67822 8.11807 5.55945C8.16285 5.44068 8.23119 5.33221 8.319 5.24055C8.40681 5.14889 8.51225 5.07596 8.62899 5.02613C8.74573 4.9763 8.87134 4.95061 8.99827 4.95061C9.1252 4.95061 9.25081 4.9763 9.36755 5.02613C9.48429 5.07596 9.58973 5.14889 9.67754 5.24055C9.76534 5.33221 9.83369 5.44068 9.87847 5.55945C9.92324 5.67822 9.94352 5.80482 9.93808 5.93163L9.93981 5.9312Z" fill="#C4000C"/>
</svg>
