<svg width="11" height="14" viewBox="0 0 11 14" fill="none" xmlns="http://www.w3.org/2000/svg">
<path d="M4.98615 13.7175C1.20234 7.95788 0.5 7.36676 0.5 5.25C0.5 2.3505 2.73857 0 5.5 0C8.26143 0 10.5 2.3505 10.5 5.25C10.5 7.36676 9.79766 7.95788 6.01385 13.7175C5.76555 14.0942 5.23443 14.0941 4.98615 13.7175ZM5.5 7.4375C6.6506 7.4375 7.58333 6.45813 7.58333 5.25C7.58333 4.04187 6.6506 3.0625 5.5 3.0625C4.3494 3.0625 3.41667 4.04187 3.41667 5.25C3.41667 6.45813 4.3494 7.4375 5.5 7.4375Z" fill="#593ABB"/>
</svg>
