<?xml version="1.0" encoding="UTF-8"?>
<svg version="1.1" xmlns="http://www.w3.org/2000/svg" width="512" height="512">
<path d="M0 0 C15.12851809 11.54422304 25.5838956 27.15272967 28.3515625 46.1875 C29.87537823 68.2223592 25.46652917 86.58497553 10.71875 103.69140625 C1.62457358 113.2808101 -9.18735991 119.03380747 -21.6484375 123.1875 C-21.6484375 145.6275 -21.6484375 168.0675 -21.6484375 191.1875 C-17.0284375 188.5475 -12.4084375 185.9075 -7.6484375 183.1875 C9.28872306 176.03970747 24.74937822 175.03910279 42.93676758 175.0456543 C44.69218024 175.04261715 46.44759212 175.03909418 48.20300293 175.03512573 C51.96242673 175.02728295 55.72184125 175.02210959 59.48127174 175.01883507 C65.42770371 175.01289169 71.3740769 174.99632335 77.32048035 174.97749329 C79.36100861 174.97115754 81.40153691 174.9648319 83.44206524 174.95851612 C84.46328106 174.95535031 85.48449689 174.9521845 86.53665864 174.94892275 C100.36647013 174.90691558 114.19625188 174.87383488 128.02612305 174.86157227 C137.37665821 174.85319661 146.72704521 174.83073416 156.07750624 174.7922166 C161.01950725 174.77245852 165.96128681 174.76005105 170.90332985 174.76505089 C175.54515035 174.76969107 180.18654965 174.75592663 184.82828522 174.72803879 C186.53023331 174.72111952 188.23222488 174.72100836 189.93417168 174.72823906 C192.25945715 174.7371203 194.58335104 174.7214481 196.90852356 174.69975281 C198.20871335 174.69736445 199.50890314 174.6949761 200.84849262 174.69251537 C205.54862837 174.0149266 208.82574877 172.09922344 211.79876709 168.37426758 C214.36695854 163.10150211 214.89027874 158.69809201 214.7421875 152.875 C214.73652771 152.02067383 214.73086792 151.16634766 214.72503662 150.28613281 C214.7028364 147.58599247 214.6526737 144.88723193 214.6015625 142.1875 C214.58147624 140.34507139 214.56322921 138.50262176 214.546875 136.66015625 C214.50302568 132.16874785 214.43411502 127.67835698 214.3515625 123.1875 C213.3318335 122.79425537 212.31210449 122.40101074 211.26147461 121.99584961 C209.90466937 121.46497683 208.54798635 120.93379158 207.19140625 120.40234375 C206.52153687 120.14497437 205.85166748 119.88760498 205.16149902 119.62243652 C199.23193705 117.28720726 194.32470483 114.17840248 189.3515625 110.1875 C188.66835938 109.67832031 187.98515625 109.16914063 187.28125 108.64453125 C174.5734521 98.55304468 166.48378092 82.04792472 164.3515625 66.1875 C162.72046876 45.96280062 166.78998169 27.39755674 180.15625 11.56640625 C192.50749648 -1.81777365 208.30966044 -11.29071278 226.90625 -12.05078125 C247.35074328 -12.47859514 264.93809497 -8.03642242 280.3515625 6.1875 C294.27696394 19.95491472 301.52199743 36.44699663 301.6640625 56.0625 C301.6792233 75.60308666 294.87812246 91.92434519 281.3515625 106.1875 C272.84158074 114.36573671 262.51098892 119.55415302 251.3515625 123.1875 C251.33754395 125.08471802 251.33754395 125.08471802 251.32324219 127.02026367 C251.28297833 131.77125606 251.2171232 136.52162536 251.14404297 141.2722168 C251.11604244 143.31738197 251.09472534 145.36265115 251.08056641 147.40795898 C250.93890944 166.72524691 248.57859239 182.22868636 234.86328125 196.828125 C219.93607662 210.84994708 202.10276413 211.33618457 182.81323242 211.3293457 C181.0382936 211.33238142 179.26335556 211.335904 177.48841858 211.33987427 C173.67931725 211.3477316 169.87022514 211.35289616 166.06111717 211.35616493 C160.02918547 211.36210332 153.99731188 211.37866988 147.96540833 211.39750671 C145.89556793 211.40384318 143.8257275 211.41016882 141.75588703 211.41648388 C140.7196739 211.41964969 139.68346076 211.4228155 138.61584723 211.42607725 C124.58432171 211.46806365 110.55282444 211.50112853 96.52124023 211.51342773 C87.04028386 211.52182321 77.55947289 211.54436491 68.07858926 211.5827834 C63.06929882 211.60248603 58.06022543 211.61496772 53.05089378 211.60994911 C48.3368568 211.60528326 43.6232311 211.61921335 38.90927696 211.64696121 C37.18727468 211.6538392 35.46522956 211.65403642 33.74322891 211.64676094 C18.09321797 211.58735694 5.16640905 214.51311097 -6.8671875 225.1484375 C-15.73052381 234.3185816 -21.66167985 246.94257385 -21.7734375 259.75 C-21.7321875 260.884375 -21.6909375 262.01875 -21.6484375 263.1875 C-20.43220703 263.60708984 -20.43220703 263.60708984 -19.19140625 264.03515625 C0.22765132 271.06580457 14.16560482 283.10439816 23.2265625 301.6875 C30.24493969 318.61417441 30.95366514 338.01829257 24.3515625 355.1875 C18.30800359 369.59877886 8.88680398 381.14419356 -4.6484375 389.1875 C-5.41414063 389.64640625 -6.17984375 390.1053125 -6.96875 390.578125 C-22.70225611 399.19780161 -41.40397279 400.78717446 -58.7109375 396.5625 C-76.74585785 390.93150958 -91.86224704 379.60250693 -101.30078125 363.0390625 C-109.47089653 345.7515722 -111.71214821 326.00431474 -105.96875 307.609375 C-98.60120579 288.51479296 -86.12066169 275.4737629 -67.9453125 266.6328125 C-64.6484375 265.1875 -64.6484375 265.1875 -58.6484375 263.1875 C-58.6484375 216.9875 -58.6484375 170.7875 -58.6484375 123.1875 C-65.0834375 120.7125 -65.0834375 120.7125 -71.6484375 118.1875 C-89.68488605 107.79693725 -101.38095626 93.77198516 -107.5234375 73.6875 C-111.65551145 55.00656686 -108.57689347 35.50510125 -98.6484375 19.1875 C-87.24687569 2.52745925 -72.451711 -6.36540249 -53.31640625 -11.4296875 C-34.4207359 -14.14092571 -15.88013991 -10.86782437 0 0 Z M206.62890625 35.2578125 C200.72184938 43.58864946 198.10859604 51.96127594 199.3515625 62.1875 C201.66638183 72.16326904 206.62961341 80.1373299 215.3515625 85.625 C223.78892245 90.19840382 232.61659717 91.89304518 242.06640625 89.5 C252.80538202 85.52873007 258.98399426 79.19745534 264.38671875 69.2890625 C267.8170918 61.72628657 267.56162549 52.57356017 264.7265625 44.875 C260.11792992 34.96724286 253.54701872 28.82362466 243.6015625 24.3125 C230.24775307 19.87009726 215.51632754 24.57678465 206.62890625 35.2578125 Z " fill="#5839BA" transform="translate(159.6484375,62.8125)"/>
</svg>
