<svg width="20" height="20" viewBox="0 0 20 20" fill="none" xmlns="http://www.w3.org/2000/svg">
<path d="M17.4602 2.5401C16.2956 1.3755 14.4074 1.37555 13.2429 2.54023L3.28452 12.4998C2.94591 12.8384 2.70791 13.2644 2.59699 13.7302L1.684 17.5648C1.63373 17.7759 1.69659 17.998 1.85006 18.1514C2.00353 18.3049 2.22563 18.3678 2.43677 18.3175L6.27114 17.4046C6.73714 17.2936 7.16321 17.0555 7.50192 16.7168L17.4603 6.75719C18.6247 5.59262 18.6247 3.7046 17.4602 2.5401ZM14.1268 3.42405C14.8032 2.74759 15.8999 2.74756 16.5763 3.42399C17.2527 4.10035 17.2527 5.19695 16.5764 5.87336L15.8337 6.61624L13.3842 4.16679L14.1268 3.42405ZM12.5003 5.05072L14.9498 7.50017L6.61798 15.8329C6.44286 16.0081 6.22256 16.1312 5.98162 16.1886L3.13525 16.8663L3.813 14.0198C3.87034 13.7789 3.99339 13.5587 4.16845 13.3836L12.5003 5.05072Z" fill="#555555aa"/>
</svg>
