<svg width="13" height="19" viewBox="0 0 13 19" fill="none" xmlns="http://www.w3.org/2000/svg">
<path d="M6.15807 9.50371C5.9888 8.90996 5.99219 7.76328 6.09036 7.76328C6.37474 7.76328 6.34766 9.13262 6.15807 9.50371ZM6.10052 11.2553C5.83984 12.0049 5.51484 12.8621 5.13906 13.582C5.75859 13.3223 6.45938 12.9438 7.26849 12.7693C6.83854 12.4131 6.42552 11.901 6.10052 11.2553ZM2.91484 15.8865C2.91484 15.9162 3.36172 15.6861 4.09635 14.3947C3.86953 14.6285 3.1112 15.3039 2.91484 15.8865ZM8.39583 5.9375H13V18.1094C13 18.6029 12.6378 19 12.1875 19H0.8125C0.36224 19 0 18.6029 0 18.1094V0.890625C0 0.39707 0.36224 0 0.8125 0H7.58333V5.04688C7.58333 5.53672 7.94896 5.9375 8.39583 5.9375ZM8.125 12.3129C7.44792 11.8602 6.99766 11.2367 6.67943 10.3164C6.83177 9.62988 7.07214 8.58711 6.88932 7.93398C6.73021 6.84297 5.45391 6.95059 5.27109 7.68164C5.10182 8.36074 5.25755 9.31816 5.54531 10.5391C5.1526 11.5633 4.5737 12.9363 4.16406 13.723C4.16068 13.723 4.16068 13.7268 4.15729 13.7268C3.23984 14.2426 1.66563 15.3781 2.31224 16.2502C2.50182 16.5063 2.85391 16.6213 3.0401 16.6213C3.64609 16.6213 4.2487 15.9533 5.10859 14.3279C5.98203 14.0125 6.9401 13.6191 7.78307 13.467C8.51771 13.9049 9.3776 14.1906 9.94974 14.1906C10.9383 14.1906 11.006 13.0031 10.6167 12.5801C10.1461 12.0754 8.77839 12.2201 8.125 12.3129ZM12.763 3.89648L9.44531 0.259766C9.29297 0.0927734 9.08646 0 8.86979 0H8.66667V4.75H13V4.52363C13 4.28984 12.9154 4.06348 12.763 3.89648ZM10.2544 13.3705C10.3932 13.2703 10.1698 12.9289 8.80547 13.0365C10.0615 13.6229 10.2544 13.3705 10.2544 13.3705Z" fill="#C4000C"/>
</svg>
