<svg width="16" height="16" viewBox="0 0 16 16" fill="none" xmlns="http://www.w3.org/2000/svg">
<path d="M7.20792 2.46289H2.37954C2.01366 2.46289 1.66277 2.60823 1.40406 2.86695C1.14534 3.12566 1 3.47655 1 3.84243V13.4992C1 13.8651 1.14534 14.216 1.40406 14.4747C1.66277 14.7334 2.01366 14.8787 2.37954 14.8787H12.0363C12.4022 14.8787 12.7531 14.7334 13.0118 14.4747C13.2705 14.216 13.4158 13.8651 13.4158 13.4992V8.67081" stroke="#5B5B5B" stroke-width="1.5" stroke-linecap="round" stroke-linejoin="round"/>
<path d="M12.3812 1.42857C12.6557 1.15416 13.0278 1 13.4159 1C13.804 1 14.1761 1.15416 14.4506 1.42857C14.725 1.70297 14.8791 2.07515 14.8791 2.46322C14.8791 2.85129 14.725 3.22347 14.4506 3.49787L7.89775 10.0507L5.13867 10.7404L5.82844 7.98137L12.3812 1.42857Z" stroke="#5B5B5B" stroke-width="1.5" stroke-linecap="round" stroke-linejoin="round"/>
</svg>
