<svg width="18" height="18" viewBox="0 0 18 18" fill="none" xmlns="http://www.w3.org/2000/svg">
<path d="M8.20922 3.08057H2.99094C2.59552 3.08057 2.21629 3.23765 1.93669 3.51725C1.65708 3.79686 1.5 4.17608 1.5 4.5715V15.0081C1.5 15.4035 1.65708 15.7827 1.93669 16.0623C2.21629 16.3419 2.59552 16.499 2.99094 16.499H13.4275C13.8229 16.499 14.2022 16.3419 14.4818 16.0623C14.7614 15.7827 14.9184 15.4035 14.9184 15.0081V9.78979" stroke="#492BA7" stroke-width="1.5" stroke-linecap="round" stroke-linejoin="round"/>
<path d="M13.8006 1.96366C14.0971 1.6671 14.4994 1.50049 14.9188 1.50049C15.3382 1.50049 15.7404 1.6671 16.037 1.96366C16.3335 2.26023 16.5002 2.66246 16.5002 3.08187C16.5002 3.50127 16.3335 3.9035 16.037 4.20007L8.95502 11.282L5.97314 12.0275L6.71861 9.04562L13.8006 1.96366Z" stroke="#492BA7" stroke-width="1.5" stroke-linecap="round" stroke-linejoin="round"/>
</svg>
