<svg width="20" height="20" viewBox="0 0 20 20" fill="none" xmlns="http://www.w3.org/2000/svg">
<path d="M9.99967 7.50383C11.8406 7.50383 13.333 8.99623 13.333 10.8371C13.333 12.6781 11.8406 14.1705 9.99967 14.1705C8.15869 14.1705 6.66631 12.6781 6.66631 10.8371C6.66631 8.99623 8.15869 7.50383 9.99967 7.50383ZM9.99967 8.75381C8.84909 8.75381 7.91631 9.68656 7.91631 10.8371C7.91631 11.9877 8.84909 12.9205 9.99967 12.9205C11.1503 12.9205 12.083 11.9877 12.083 10.8371C12.083 9.68656 11.1503 8.75381 9.99967 8.75381ZM9.99967 4.58331C13.8443 4.58331 17.1631 7.20832 18.0839 10.887C18.1678 11.2218 17.9643 11.5612 17.6294 11.6451C17.2945 11.7288 16.9552 11.5254 16.8713 11.1905C16.0889 8.06495 13.2674 5.83331 9.99967 5.83331C6.73043 5.83331 3.90806 8.06686 3.12703 11.1943C3.04339 11.5291 2.70411 11.7328 2.36922 11.6492C2.03433 11.5656 1.83065 11.2263 1.91428 10.8914C2.83352 7.21058 6.15339 4.58331 9.99967 4.58331Z" fill="#593ABB"/>
</svg>
