<svg width="405" height="381" viewBox="0 0 405 381" fill="none" xmlns="http://www.w3.org/2000/svg">
<path d="M401.024 333.33L230.594 16.83C218.514 -5.61 186.334 -5.61 174.244 16.83L3.8243 333.33C1.20142 338.202 -0.113564 343.67 0.00768696 349.201C0.128938 354.733 1.68229 360.138 4.51611 364.89C7.34994 369.642 11.3674 373.578 16.1764 376.314C20.9854 379.05 26.4216 380.492 31.9543 380.5H372.844C378.381 380.501 383.824 379.065 388.64 376.332C393.455 373.6 397.48 369.665 400.32 364.912C403.159 360.158 404.717 354.749 404.841 349.214C404.964 343.678 403.649 338.205 401.024 333.33ZM202.424 331.5C198.469 331.5 194.602 330.327 191.313 328.129C188.024 325.932 185.46 322.808 183.947 319.154C182.433 315.499 182.037 311.478 182.809 307.598C183.58 303.719 185.485 300.155 188.282 297.358C191.079 294.561 194.643 292.656 198.522 291.884C202.402 291.113 206.423 291.509 210.078 293.022C213.732 294.536 216.856 297.1 219.054 300.389C221.251 303.678 222.424 307.544 222.424 311.5C222.424 316.804 220.317 321.891 216.566 325.642C212.816 329.393 207.729 331.5 202.424 331.5ZM224.144 130.35L218.404 252.35C218.404 256.593 216.719 260.663 213.718 263.664C210.717 266.664 206.648 268.35 202.404 268.35C198.161 268.35 194.091 266.664 191.091 263.664C188.09 260.663 186.404 256.593 186.404 252.35L180.664 130.4C180.535 127.486 180.994 124.576 182.014 121.843C183.034 119.11 184.593 116.61 186.6 114.493C188.606 112.375 191.018 110.684 193.692 109.518C196.366 108.353 199.247 107.738 202.164 107.71H202.374C205.311 107.708 208.218 108.302 210.919 109.455C213.62 110.607 216.059 112.295 218.09 114.417C220.121 116.538 221.701 119.049 222.734 121.798C223.768 124.546 224.234 127.476 224.104 130.41L224.144 130.35Z" fill="#B57801"/>
</svg>
